<svg width="183" height="70" viewBox="0 0 183 70" fill="none" xmlns="http://www.w3.org/2000/svg">
<path fill-rule="evenodd" clip-rule="evenodd" d="M12.0163 36.0605L0 69.9999H17.706L22.6526 55.1515H33.9683V36.0605H12.0163Z" fill="#FF000F"/>
<path fill-rule="evenodd" clip-rule="evenodd" d="M33.9683 0H24.7756L12.7593 33.9394H33.9683V0Z" fill="#FF000F"/>
<path fill-rule="evenodd" clip-rule="evenodd" d="M36.0913 55.1515H47.4282L52.3748 69.9999H70.0596L58.0645 36.0605H36.0913V55.1515Z" fill="#FF000F"/>
<path fill-rule="evenodd" clip-rule="evenodd" d="M57.3002 33.9394L45.3052 0H36.0913V33.9394H57.3002Z" fill="#FF000F"/>
<path d="M178.864 33.9394C176.699 31.0121 173.854 28.6364 170.542 27.0242C174.385 24.3303 176.911 19.897 176.911 14.8485C176.911 6.63939 170.266 0 162.05 0H157.103V33.9394H178.864Z" fill="#FF000F"/>
<path d="M157.103 36.0605V69.9999H160.649C173.153 69.9999 182.94 59.8818 182.94 47.3666C182.94 43.2515 182.176 39.3908 180.244 36.0605H157.103Z" fill="#FF000F"/>
<path d="M154.98 0H133.75V33.9394H154.98V0Z" fill="#FF000F"/>
<path d="M154.98 36.0605H133.75V69.9999H154.98V36.0605Z" fill="#FF000F"/>
<path d="M121.543 33.9394C119.377 31.0121 116.532 28.6364 113.221 27.0242C117.063 24.3303 119.59 19.897 119.59 14.8485C119.59 6.63939 112.945 0 104.728 0H99.7819V33.9394H121.543Z" fill="#FF000F"/>
<path d="M99.7819 36.0605V69.9999H103.327C115.832 69.9999 125.619 59.8818 125.619 47.3666C125.619 43.2515 124.855 39.3908 122.923 36.0605H99.7819Z" fill="#FF000F"/>
<path d="M97.6588 0H76.4286V33.9394H97.6588V0Z" fill="#FF000F"/>
<path d="M97.6588 36.0605H76.4286V69.9999H97.6588V36.0605Z" fill="#FF000F"/>
</svg>
