<svg width="256" height="143" viewBox="0 0 256 143" fill="none" xmlns="http://www.w3.org/2000/svg">
<g clip-path="url(#clip0_629_21)">
<path d="M44.7148 46.4537H81.5148V55.5166H55.4893V66.0248H81.0553V74.3736H55.4893V86.3441H81.8723V95.407H44.7148V46.4537Z" fill="#231F20"/>
<path d="M95.4894 79.1856C95.4894 85.698 100.596 88.2485 106.349 88.2485C110.128 88.2485 115.932 87.1433 115.932 82.1442C115.932 77.1282 108.579 75.9549 101.362 74.0505C94.1447 72.1291 86.7405 69.2555 86.7405 60.1076C86.7405 50.0925 96.2043 45.2805 105.072 45.2805C115.302 45.2805 124.715 49.7354 124.715 61.0598H114.247C113.923 55.1766 109.719 53.6632 104.664 53.6632C101.209 53.6632 97.2426 55.1085 97.2426 59.2234C97.2426 63.3383 99.6256 63.4743 111.881 66.62C115.455 67.5382 126.434 69.7826 126.434 80.988C126.434 89.9659 119.234 96.6993 106.026 96.6993C95.166 96.6993 85.0043 91.3261 85.1575 79.2706L95.4894 79.1856Z" fill="#231F20"/>
<path fill-rule="evenodd" clip-rule="evenodd" d="M143.302 46.4537H153.957L171.574 95.458H160.817L157.259 84.5587H139.625L135.932 95.458H125.43L143.302 46.4537ZM142.315 76.6181H154.536L148.613 58.5093H148.476L142.315 76.6181Z" fill="#231F20"/>
<path fill-rule="evenodd" clip-rule="evenodd" d="M172.613 46.4537H195.421C204.664 46.4537 210.911 49.4804 210.911 58.5943C210.945 59.6825 210.809 60.7537 210.519 61.7909C210.247 62.8282 209.787 63.8314 209.209 64.7326C208.63 65.6338 207.898 66.4499 207.081 67.1471C206.247 67.8442 205.311 68.4053 204.323 68.8304C205.668 69.1705 206.962 69.7316 208.119 70.5138C209.277 71.2959 210.281 72.2652 211.098 73.4044C211.915 74.5266 212.528 75.7849 212.919 77.1282C213.311 78.4715 213.447 79.8657 213.362 81.243C213.362 91.2071 204.987 95.458 196.238 95.458H172.613V46.4537ZM183.251 66.2799H194.179C197.923 66.2799 200.698 64.5455 200.698 60.4307C200.698 55.7887 197.175 54.8025 193.362 54.8025H183.353L183.251 66.2799ZM183.251 87.0923H194.655C198.877 87.0923 202.536 85.698 202.536 80.6309C202.536 75.5468 199.421 73.6254 194.877 73.6254H183.336L183.251 87.0923Z" fill="#231F20"/>
<path d="M44.4426 100.406H211.081V110.37L162.894 142.847H0V131.251L44.4426 100.406Z" fill="#231F20"/>
<path d="M91.7276 0H255.319V11.4774L210.179 42.0668H44.7148V31.3716L91.7276 0Z" fill="#231F20"/>
<path fill-rule="evenodd" clip-rule="evenodd" d="M246.281 57.064V49.6674H250.008C250.315 49.6164 250.621 49.6334 250.911 49.7184C251.2 49.8205 251.472 49.9565 251.711 50.1605C251.932 50.3646 252.119 50.6026 252.238 50.8917C252.357 51.1637 252.425 51.4698 252.408 51.7759C252.42 51.9572 252.403 52.1443 252.357 52.337C252.312 52.5184 252.238 52.6884 252.136 52.8471C252.034 53.0058 251.903 53.1418 251.745 53.2552C251.597 53.3685 251.438 53.4592 251.268 53.5272C251.881 53.7823 252.187 54.2924 252.187 55.3806C252.187 56.4859 252.187 56.7239 252.562 56.8769V57.064H250.825C250.791 56.9393 250.763 56.8203 250.74 56.7069C250.718 56.5822 250.701 56.4575 250.689 56.3328C250.667 56.2081 250.655 56.0834 250.655 55.9587C250.655 55.8341 250.655 55.7094 250.655 55.5847C250.655 54.5474 250.587 54.1734 249.464 54.1734H247.864V57.064H246.281ZM249.685 52.9151C250.468 52.9151 250.859 52.303 250.859 51.9119C250.859 51.5378 250.689 50.9597 249.804 50.9597H247.864V52.9151H249.685Z" fill="#231F20"/>
<path fill-rule="evenodd" clip-rule="evenodd" d="M249.311 46.7428C251.983 46.7428 254.366 48.3411 255.387 50.7896C256.408 53.2382 255.847 56.0608 253.957 57.9481C252.085 59.8185 249.259 60.3797 246.808 59.3594C244.357 58.3562 242.757 55.9587 242.757 53.3062C242.757 52.439 242.928 51.5888 243.251 50.8066C243.591 50.0075 244.068 49.2933 244.681 48.6812C245.294 48.0691 246.008 47.593 246.808 47.2699C247.608 46.9298 248.459 46.7598 249.311 46.7598V46.7428ZM247.234 48.3071C246.57 48.5792 245.974 48.9703 245.464 49.4804C244.97 49.9735 244.562 50.5856 244.289 51.2317C244.017 51.8949 243.881 52.592 243.881 53.3062C243.881 55.4996 245.191 57.472 247.217 58.3052C249.242 59.1554 251.574 58.6963 253.123 57.149C254.672 55.6017 255.132 53.2892 254.315 51.2657C253.481 49.2423 251.506 47.916 249.311 47.899C248.613 47.899 247.898 48.0351 247.234 48.3071Z" fill="#231F20"/>
</g>
<defs>
<clipPath id="clip0_629_21">
<rect width="256" height="143" fill="white"/>
</clipPath>
</defs>
</svg>
