<svg width="320" height="77" viewBox="0 0 320 77" fill="none" xmlns="http://www.w3.org/2000/svg">
<path fill-rule="evenodd" clip-rule="evenodd" d="M304.946 15.9338V24.9103C300.345 23.1547 296.248 22.267 292.662 22.267C290.538 22.267 288.847 22.6645 287.575 23.4329C286.304 24.208 285.655 25.1621 285.655 26.2883C285.655 27.7854 287.09 29.1169 289.981 30.3095L298.332 34.4168C305.084 37.6696 308.434 41.9889 308.434 47.4146C308.434 51.926 306.657 55.5233 303.072 58.1864C299.512 60.8762 294.72 62.2077 288.755 62.2077C286.002 62.2077 283.531 62.0885 281.335 61.8367C279.139 61.5983 276.615 61.108 273.816 60.4057V51.0119C278.949 52.7675 283.623 53.6551 287.831 53.6551C292.852 53.6551 295.35 52.1844 295.35 49.2165C295.35 47.7392 294.327 46.5468 292.249 45.6126L282.974 41.6179C279.552 40.0545 277.008 38.1598 275.343 35.914C273.705 33.6484 272.872 31.0515 272.872 28.0836C272.872 23.9298 274.603 20.5843 278.024 18.0403C281.472 15.5163 286.048 14.251 291.738 14.251C293.586 14.251 295.717 14.4166 298.077 14.7213C300.456 15.046 302.744 15.4434 304.946 15.9338Z" fill="#009999"/>
<path fill-rule="evenodd" clip-rule="evenodd" d="M42.2433 15.9338V24.9103C37.6415 23.1547 33.5512 22.267 29.9655 22.267C27.835 22.267 26.1505 22.6645 24.8787 23.4329C23.6071 24.208 22.9581 25.1621 22.9581 26.2883C22.9581 27.7854 24.4133 29.1169 27.3041 30.3095L35.6554 34.4168C42.3809 37.6696 45.7372 41.9889 45.7372 47.4146C45.7372 51.926 43.9542 55.5233 40.3947 58.1864C36.8091 60.8762 32.0435 62.2077 26.0587 62.2077C23.3055 62.2077 20.8277 62.0885 18.6317 61.8367C16.4357 61.5983 13.9382 61.108 11.1196 60.4057V51.0119C16.2719 52.7675 20.9458 53.6551 25.1278 53.6551C30.1491 53.6551 32.6466 52.1844 32.6466 49.2165C32.6466 47.7392 31.6306 46.5468 29.5722 45.6126L20.2968 41.6179C16.8487 40.0545 14.3053 38.1598 12.6666 35.914C11.0015 33.6484 10.1887 31.0515 10.1887 28.0836C10.1887 23.9298 11.9062 20.5843 15.3476 18.0403C18.7694 15.5163 23.3514 14.251 29.0413 14.251C30.9095 14.251 33.0137 14.4166 35.3997 14.7213C37.7596 15.046 40.0473 15.4434 42.2433 15.9338Z" fill="#009999"/>
<path fill-rule="evenodd" clip-rule="evenodd" d="M51.8137 15.0923H65.4157V61.3664H51.8137V15.0923Z" fill="#009999"/>
<path fill-rule="evenodd" clip-rule="evenodd" d="M109.237 15.0923V23.645H89.0272V33.9066H106.556V41.6179H89.0272V52.3899H109.65V61.3664H75.9368V15.0923H109.237Z" fill="#009999"/>
<path fill-rule="evenodd" clip-rule="evenodd" d="M172.736 15.0923V61.3664H160.038V30.8461L146.863 61.7904H139.023L126.352 30.8461V61.3664H117.168V15.0923H133.772L145.106 43.4198L156.965 15.0923H172.736Z" fill="#009999"/>
<path fill-rule="evenodd" clip-rule="evenodd" d="M216.538 15.0923V23.645H196.439V33.9066H213.967V41.6179H196.439V52.3899H216.951V61.3664H183.238V15.0923H216.538Z" fill="#009999"/>
<path fill-rule="evenodd" clip-rule="evenodd" d="M264.265 15.0923V61.3664H249.838L233.647 31.6874V61.3664H224.469V15.0923H239.317L255.089 44.2613V15.0923H264.265Z" fill="#009999"/>
</svg>
