<svg width="184" height="183" viewBox="0 0 184 183" fill="none" xmlns="http://www.w3.org/2000/svg">
<g clip-path="url(#clip0_629_30)">
<path d="M16.2878 183H174.642L130.839 139.276C117.053 125.515 117.009 116.79 117.009 110.434C117.009 108.011 116.373 98.985 133.928 77.6432C137.368 73.4441 140.85 67.8447 140.85 60.4251C140.85 51.7217 135.403 46.2778 122.392 46.2778C112.568 46.2778 104.27 48.8963 104.27 60.6424V136.794C104.27 136.794 105.202 168.434 61.2305 168.434C29.4609 168.434 20.056 148.349 20.056 135.864V0C5.88133 0 0 5.01244 0 16.1633V167.407C0 175.556 6.09283 183 16.2878 183Z" fill="#56A2D6"/>
<path d="M79.0987 134.296V53.6631C79.0987 19.9107 147.307 12.1738 162.765 40.8904C163.199 41.6979 174.291 61.5652 159.076 82.6913L144.978 102.131C144.978 102.131 138.785 110.484 146.219 117.906L184 155.618V15.6141C184 6.82794 177.37 0 167.689 0H45.5376V134.274C45.5376 141.741 52.3241 145.635 61.6967 145.635C71.5848 145.69 79.0987 141.404 79.0987 134.296Z" fill="#56A2D6"/>
</g>
<defs>
<clipPath id="clip0_629_30">
<rect width="184" height="183" fill="white"/>
</clipPath>
</defs>
</svg>
