<?xml version="1.0" encoding="UTF-8"?>
<svg id="Warstwa_1" data-name="Warstwa 1" xmlns="http://www.w3.org/2000/svg" viewBox="0 0 809.14 430.98">
  <defs>
    <style>
      .cls-1 {
        fill: #fff;
        stroke-width: 0px;
      }
    </style>
  </defs>
  <g>
    <path class="cls-1" d="M327.29,188.83c-10.35,19.52-19.38,21.32-31.24,21.32l-33.59.13c-9.52,0-6.62-3-4.78-6.59L374.07,7.61c1.84-4.19,4.22-7.61,10.48-7.61l44.23.48c6.25,0,8.49-.76,12.68,5.54l122.3,197.53c1.84,3.59,5.23,6.59-4.41,6.59h-35.06c-23.25,0-29.43-14.57-31.63-18.77l-81.65-140.93c-1.65-3.16-3.47-1.02-5.13,2.14l-78.59,136.24Z"/>
    <path class="cls-1" d="M801.01,168.56h-137.86l-7.74-.45c-2.95,0-5.34-2.34-5.34-5.24V7.97c0-4.4-3.64-7.97-8.13-7.97h-38.67c-4.49,0-8.13,3.57-8.13,7.97v180.78c0,3.81,1.26,22.51,22.89,22.51h182.97c4.49,0,8.13-3.57,8.13-7.97v-26.76c0-4.4-3.64-7.97-8.13-7.97Z"/>
    <path class="cls-1" d="M215.97,106.74c-1.94-.68-2.01-1.95-.14-2.83,16.32-7.68,24.04-21.51,24.04-43.31,0,0,7.41-60.6-57.63-60.6H.1C.1,18.79-2.06,38.7,13.26,44.23c2.13.77,4.4,1.02,6.65,1.03l24.42.15.42-.04h134.41c4.33,0,7.84,3.63,7.84,8.12v22.39c0,4.48-3.51,8.12-7.84,8.12h-81.64l-89.83.67C0,84.65.23,89.65.23,93.86l.82,110.86c0,3.9,3.11,5.55,8.23,5.55l176.7-.35c31.64.35,59.27-17.57,61.29-46.14v-12.79c0-22.89-15.67-38.75-31.31-44.26ZM187.51,156c0,4.48-3.51,8.12-7.84,8.12h-95.42l-23.49.1-1.16-.1h-5.03c-4.33,0-7.84-3.63-7.84-8.12v-22.39c0-4.48,3.51-8.12,7.84-8.12h86.31l23.63-.1c2.01,0,3.74.04,5.29.1h9.87c4.33,0,7.84,3.63,7.84,8.12v22.39Z"/>
  </g>
  <path class="cls-1" d="M808.32,406.06v-120.96h-23.65v79.44c0,.72-.54,1.26-1.08,1.26h-56.69c-.72,0-1.26-.54-1.26-1.26v-79.44h-23.65v79.44c0,13.72,11.19,24.92,24.92,24.92h57.77v16.61c0,.72-.54,1.08-1.08,1.08h-64.09v23.83h64.09c13.72,0,24.73-11.19,24.73-24.92ZM633.38,284.74c-13.72,0-24.92,11.19-24.92,24.92v79.8h23.65v-79.8c0-.72.54-1.26,1.26-1.26h58.13v-23.65h-58.13ZM594.21,308.39v-23.65h-40.8v-34.3h-23.65v114.1c0,13.72,11.01,24.92,24.92,24.92h39.54v-23.65h-39.54c-.72,0-1.26-.54-1.26-1.26v-56.15h40.8ZM511.36,309.65c0-13.72-11.01-24.92-24.92-24.92h-56.51c-13.72,0-24.92,11.19-24.92,24.92v14.44c0,13.72,11.19,24.92,24.92,24.92h56.51c.72,0,1.26.36,1.26,1.08v14.44c0,.72-.54,1.26-1.26,1.26h-56.51c-.72,0-1.26-.54-1.26-1.26v-4.51h-23.65v4.51c0,13.72,11.19,24.92,24.92,24.92h56.51c13.9,0,24.92-11.19,24.92-24.92v-14.44c0-13.72-11.01-24.92-24.92-24.92h-56.51c-.72,0-1.26-.36-1.26-1.08v-14.44c0-.72.54-1.26,1.26-1.26h56.51c.72,0,1.26.54,1.26,1.26v4.51h23.65v-4.51ZM364.04,284.74v79.8c0,.72-.54,1.26-1.26,1.26h-56.51c-.72,0-1.26-.54-1.26-1.26v-79.8h-23.65v79.8c0,13.72,11.01,24.92,24.92,24.92h56.51c13.72,0,24.92-11.19,24.92-24.92v-79.8h-23.65ZM184.96,365.8c-.72,0-1.08-.54-1.08-1.26v-54.88c0-.72.36-1.26,1.08-1.26h56.69c.72,0,1.26.54,1.26,1.26v54.88c0,.72-.54,1.26-1.26,1.26h-56.69ZM242.91,250.44v34.3h-57.95c-13.72,0-24.92,11.19-24.92,24.92v54.88c0,13.72,11.19,24.92,24.92,24.92h81.6v-139.02h-23.65ZM121.42,284.74H39.99v104.71h23.65v-79.8c0-.72.54-1.26,1.26-1.26h56.51c.72,0,1.26.54,1.26,1.26v79.8h23.65v-79.8c0-13.72-11.19-24.92-24.92-24.92ZM.82,389.45h23.83v-129.99H.82v129.99Z"/>
</svg>