<?xml version="1.0" encoding="UTF-8"?>
<svg id="Warstwa_1" data-name="Warstwa 1" xmlns="http://www.w3.org/2000/svg" viewBox="0 0 93.56 43.03">
  <defs>
    <style>
      .cls-1, .cls-2 {
        fill: #ec6e2f;
      }

      .cls-2 {
        isolation: isolate;
      }
    </style>
  </defs>
  <path class="cls-1" d="m22.89,13.36c2.99-.96,4.61-2.77,4.61-5.78,0-4.23-3.18-7.12-10.73-7.12H2.66C.85.46,0,1.15,0,2.58v2.4l16.96-.06c3.42,0,4.89,1.35,4.89,3.39s-1.61,3.12-4.94,3.12H5.65h0s-.03,0-.03,0H0v12.9c0,1.42.85,2.12,2.66,2.12h14.25c7.55,0,10.73-3,10.73-7.16,0-3-1.71-4.93-4.75-5.93h0Zm-5.84,8.59H6.13c-.38,0-.62-.12-.62-.42v-6.31h11.54c3.28,0,4.94,1.15,4.94,3.35s-1.57,3.39-4.94,3.39h0Z"/>
  <path class="cls-1" d="m48.11,0c-3.37,0-5.56.92-6.75,3.35l-11.26,23.1h6.17l10.16-20.9c.33-.62.85-.88,1.61-.88s1.28.27,1.57.88l9.74,20.9h6.22L54.76,3.35c-1.14-2.43-3.32-3.35-6.65-3.35h0Z"/>
  <path class="cls-1" d="m79.6,21.91c-5.04,0-6.56-1.96-6.56-4.47V.46h-5.6v17.02c0,5.2,3.32,8.97,11.83,8.97h12.78v-4.54h-12.44Z"/>
  <path class="cls-2" d="m91.07,31.66l-3.8,4.83-3.82-4.83h-2.48c1.64,2.26,3.6,4.86,5.25,7.12v4.24h2.08v-4.24l5.25-7.12h-2.49,0Zm-20.32,5.38c-.06,0-.11-.05-.11-.11v-3.06c0-.06.05-.11.11-.11h6.96c.06,0,.11.05.11.11v3.06c0,.06-.05.11-.11.11h-6.96Zm9.17-3.17c0-1.2-.99-2.19-2.21-2.19h-9.15v11.35h2.08v-3.9h3.72l3.28,3.9h2.27v-.54l-2.82-3.36h.62c1.22,0,2.21-.99,2.21-2.19v-3.06h0Zm-23.89-2.21v2.08h4.64v9.28h2.1v-9.28h4.62v-2.08h-11.36,0Zm-1.12,2.19c0-1.22-.99-2.19-2.19-2.19h-6.97c-1.22,0-2.19.98-2.19,2.19v2.34c0,1.22.98,2.19,2.19,2.19h6.97s.09.05.09.11v2.34c0,.06-.05.11-.09.11h-6.97c-.06,0-.11-.05-.11-.11v-.87h-2.08v.87c0,1.22.98,2.19,2.19,2.19h6.97c1.2,0,2.19-.98,2.19-2.19v-2.34c0-1.22-.99-2.19-2.19-2.19h-6.97c-.06,0-.11-.05-.11-.11v-2.34c0-.06.05-.11.11-.11h6.97s.09.05.09.11v.87h2.1v-.87h0Zm-15.12,6.97c0,.06-.05.11-.09.11h-6.97c-.06,0-.11-.05-.11-.11v-9.17h-2.08v9.17c0,1.22.98,2.19,2.19,2.19h6.97c1.2,0,2.19-.98,2.19-2.19v-9.17h-2.1v9.17h0Zm-13.1,0c0,.06-.05.11-.11.11h-6.96c-.06,0-.11-.05-.11-.11v-6.97c0-.06.05-.11.11-.11h6.96c.06,0,.11.05.11.11v6.97h0Zm-9.26-9.17v11.36h9.15c1.22,0,2.21-.98,2.21-2.19v-6.97c0-1.22-.99-2.19-2.21-2.19h-9.15Zm-3.9,8.33l-6.99-8.33h-2.27v11.36h2.08v-8.33l7.01,8.33h2.27v-11.36h-2.1v8.33Zm-12.72,3.03h2.08v-11.36H.81v11.36Z"/>
</svg>